# xmcd
#
# Track frame offsets:
#	150
#	3051
#	14750
#	17812
#	38985
#	50677
#	53105
#	66720
#	76950
#	81154
#	89461
#	91340
#	103569
#	120528
#	134652
#	136836
#	150075
#	162123
#	164370
#	176292
#	183408
#	196001
#	200630
#
# Disc length: 2925 seconds
#
# Revision: 0
# Processed by: cddbd v1.5.2PL0 Copyright (c) Steve Scherf et al.
# Submitted via: SynApp - FreeCDDB Version: 2.3
#
DISCID=2a0b6b17
DTITLE=Sting - Songs from the Labyrinth
DYEAR=5
DGENRE=0
TTITLE0=Edin Karamazov - Walsingham
TTITLE1=Sting, Edin Karamazov - Can She Excuse My Wrongs?
TTITLE2=Sting - "Ryght Honorable: As I Have Bin Most Bounde Unto Your Honor..."
TTITLE3=Sting, Edin Karamazov - Flow My Tears
TTITLE4=Sting, Edin Karamazov - Have You Seen The Bright Lily Grow
TTITLE5=Sting - "...Then In Time Passing One Mr. Johnson Died..."
TTITLE6=Edin Karamazov - The Most High And Mighty Christianus The Forth, King Of Denmark, His Galliard
TTITLE7=Sting, Edin Karamazov - The Lowest Trees Have Tops
TTITLE8=Sting - "...And Accordinge As I Desired Ther Cam A Letter..."
TTITLE9=Sting, Edin Karamazov - Fine Knacks For Ladies
TTITLE10=Sting - "...From Thence I Went To The Landgrave Of Hessen..."
TTITLE11=Edin Karamazov - Fantasy
TTITLE12=Sting, Edin Karamazov - Come Heavy Sleep
TTITLE13=Edin Karamazov - Forlorn Hope Fancy
TTITLE14=Sting, Edin Karamazov - "...And From Thence I Had Great Desire To See Italy..."
TTITLE15=Sting, Edin Karamazov - Come Again
TTITLE16=Sting, Edin Karamazov - Wilt Thou Unkind Thus Reave Me
TTITLE17=Sting - "...After My Departure I Caled To Mynde Our Conference..."
TTITLE18=Sting, Edin Karamazov - Weep You No More, Sad Fountains
TTITLE19=Sting, Edin Karamazov - My Lord Willoughby's Welcome Home
TTITLE20=Sting, Edin Karamazov - Clear Or Cloudy
TTITLE21=Sting - "...Men Say That The Kinge Of Spain Is Making Gret Preparation..."
TTITLE22=Sting, Edin Karamazov - In Darkness Let Me Dwell
EXTD=
EXTT0=
EXTT1=
EXTT2=
EXTT3=
EXTT4=
EXTT5=
EXTT6=
EXTT7=
EXTT8=
EXTT9=
EXTT10=
EXTT11=
EXTT12=
EXTT13=
EXTT14=
EXTT15=
EXTT16=
EXTT17=
EXTT18=
EXTT19=
EXTT20=
EXTT21=
EXTT22=
PLAYORDER=
